<?xml version="1.0" standalone="no"?>
<!DOCTYPE svg PUBLIC "-//W3C//DTD SVG 20010904//EN"
 "http://www.w3.org/TR/2001/REC-SVG-20010904/DTD/svg10.dtd">
<svg version="1.0" xmlns="http://www.w3.org/2000/svg"
 width="512.000000pt" height="512.000000pt" viewBox="0 0 512.000000 512.000000"
 preserveAspectRatio="xMidYMid meet">
<metadata>
Created by potrace 1.11, written by Peter Selinger 2001-2013
</metadata>
<g transform="translate(0.000000,512.000000) scale(0.100000,-0.100000)"
fill="#000000" stroke="none">
<path d="M2488 4445 c-2 -2 -25 -5 -53 -8 -213 -25 -393 -153 -489 -347 -68
-139 -105 -303 -110 -497 -1 -17 -11 -42 -23 -55 -31 -33 -42 -67 -37 -120 5
-69 41 -154 90 -211 24 -29 62 -90 85 -137 142 -291 360 -512 553 -559 118
-29 257 37 412 194 93 94 196 244 253 366 21 46 48 93 60 103 29 27 78 104 95
152 34 96 28 164 -17 212 -12 13 -22 37 -23 55 -14 318 -87 524 -239 672 -119
117 -264 174 -456 179 -54 2 -100 2 -101 1z"/>
<path d="M1058 3815 c-2 -2 -25 -5 -53 -8 -219 -24 -358 -202 -381 -486 -5
-64 -12 -89 -27 -104 -16 -16 -18 -28 -13 -74 7 -60 22 -95 60 -140 14 -16 43
-64 65 -107 43 -84 97 -159 157 -219 21 -20 33 -37 29 -37 -37 0 -637 -146
-661 -161 -48 -29 -68 -68 -88 -169 -3 -14 -25 -113 -49 -220 -25 -107 -56
-244 -70 -305 -14 -60 -22 -113 -18 -117 3 -4 69 -29 146 -55 82 -27 155 -59
177 -75 49 -38 150 -83 240 -107 73 -20 97 -25 195 -40 57 -8 52 -13 67 64 3
11 14 63 26 115 12 52 28 122 35 155 7 33 37 161 65 285 29 124 54 235 56 247
25 135 170 265 322 288 22 3 71 12 109 20 37 8 73 15 78 15 13 2 -68 23 -168
45 l-78 17 48 51 c61 64 105 129 145 210 17 34 43 78 58 97 39 50 60 94 66
139 5 37 -7 78 -27 92 -5 3 -11 41 -14 85 -10 146 -64 293 -138 373 -50 53
-143 102 -227 118 -28 5 -128 11 -132 8z"/>
<path d="M3923 3804 c-88 -19 -151 -51 -209 -109 -86 -85 -136 -214 -150 -380
-3 -44 -10 -82 -14 -85 -18 -13 -31 -55 -26 -89 7 -50 24 -87 60 -135 17 -22
46 -69 64 -104 43 -84 85 -146 144 -208 l49 -52 -113 -26 c-62 -14 -119 -26
-127 -26 -38 0 8 -13 124 -36 138 -27 209 -56 268 -110 46 -42 92 -116 103
-164 4 -19 9 -39 10 -45 3 -8 35 -146 49 -205 2 -8 15 -67 30 -130 14 -63 28
-126 31 -140 3 -14 12 -54 20 -90 9 -36 18 -76 20 -90 3 -14 10 -43 16 -65 5
-22 12 -49 14 -60 11 -57 16 -75 22 -71 4 2 34 7 66 11 140 16 334 82 409 139
29 22 264 115 293 116 5 0 18 6 27 13 15 11 15 17 1 77 -8 36 -44 193 -80 350
-35 157 -72 302 -81 323 -9 21 -30 48 -46 59 -31 22 -41 25 -322 89 -99 23
-216 50 -260 60 -44 10 -84 19 -89 19 -5 0 16 26 46 58 59 62 110 135 149 217
13 28 38 68 55 90 63 79 83 176 45 214 -13 13 -20 40 -25 102 -16 197 -84 338
-202 420 -96 66 -238 90 -371 63z"/>
<path d="M2110 2575 c-36 -7 -81 -15 -100 -19 -19 -4 -42 -9 -50 -11 -8 -2
-31 -7 -50 -10 -19 -3 -57 -10 -85 -15 -105 -21 -311 -61 -345 -66 -14 -2 -36
-7 -50 -10 -14 -3 -36 -8 -50 -10 -92 -15 -167 -56 -209 -115 -27 -36 -51
-116 -86 -284 -14 -67 -77 -346 -85 -375 -10 -36 -77 -334 -86 -380 -3 -14 -7
-33 -10 -42 -3 -9 -6 -25 -8 -35 -2 -10 -7 -29 -11 -43 -5 -23 -2 -27 32 -38
21 -8 47 -17 58 -22 11 -5 47 -18 80 -29 210 -70 303 -106 325 -126 100 -91
397 -199 630 -230 8 -1 33 -5 55 -8 247 -41 757 -42 985 -2 14 3 41 7 60 10
253 39 514 132 617 220 29 24 80 48 189 85 338 117 325 112 320 129 -3 9 -13
50 -21 91 -20 94 -17 79 -55 245 -18 77 -33 145 -35 150 -1 6 -5 21 -8 35 -6
28 -24 106 -92 404 -25 110 -54 214 -65 231 -42 68 -107 107 -220 129 -109 21
-390 76 -425 82 -16 3 -64 12 -105 20 -41 8 -86 17 -100 19 -14 2 -36 7 -50
10 -22 4 -59 11 -112 21 -10 1 -18 2 -18 0 0 -2 47 -33 104 -70 57 -36 109
-73 116 -80 9 -12 -23 -124 -160 -553 -95 -296 -179 -560 -187 -588 -17 -53
-32 -79 -34 -55 -1 19 1 11 -59 255 -28 116 -53 219 -55 230 -3 11 -8 34 -12
50 -4 17 -7 32 -8 35 -18 83 -71 290 -75 290 -4 0 -44 -155 -56 -215 -1 -5
-25 -104 -53 -220 -29 -115 -61 -248 -73 -294 -23 -95 -26 -110 -27 -131 -2
-28 -19 5 -41 80 -13 41 -44 140 -70 220 -26 80 -66 206 -90 280 -23 74 -50
160 -60 190 -41 124 -119 377 -125 400 -5 23 5 32 110 99 63 41 115 76 115 78
0 4 1 4 -80 -12z"/>
<path d="M2468 2437 c-47 -18 -89 -35 -92 -38 -4 -3 36 -68 88 -143 l95 -137
24 33 c93 127 167 242 160 248 -6 6 -186 72 -188 69 0 0 -39 -14 -87 -32z"/>
</g>
</svg>
